<svg id="Layer_1" data-name="Layer 1" xmlns="http://www.w3.org/2000/svg" viewBox="0 0 241.18 319.04"><defs><style>.cls-1{fill:#fff;}</style></defs><path class="cls-1" d="M733.46,465.91a3.78,3.78,0,0,0,2.67-1.11l38.94-38.93a3.8,3.8,0,0,0,0-5.35l-38.94-38.94a3.81,3.81,0,0,0-2.67-1.1H616.65c-.07,0-.14,0-.21,0a3.7,3.7,0,0,0-1,.21,3,3,0,0,0-.32.12,3.64,3.64,0,0,0-1.1.73l-77.87,77.87a4,4,0,0,0-.74,1.1,3.4,3.4,0,0,0-.12.34,3.85,3.85,0,0,0-.2,1,1.89,1.89,0,0,0,0,.23V656.81a3.78,3.78,0,0,0,1.11,2.67L575,698.42a3.8,3.8,0,0,0,5.35,0l38.94-38.94a3.77,3.77,0,0,0,1.1-2.67V621.65h74.09a3.82,3.82,0,0,0,2.68-1.1l38.93-38.94a3.78,3.78,0,0,0,0-5.35L697.2,537.33l-36.26-36.26,35.15-35.16Zm33.59-42.72-35.16,35.16H620.43V388H731.89Zm-154.18-29.8v65h-65ZM542.56,608.74v-65h65Zm70.31,46.5-35.15,35.15-35.16-35.15v-35.8l70.31-70.31V655.24ZM693,614.09H620.43V543.78H693l35.15,35.16Zm-40.05-115.7a3.8,3.8,0,0,0,0,5.35l32.48,32.48H542.56V465.91H685.39Z" transform="translate(-535 -380.48)"/></svg>